<?xml version="1.0" encoding="UTF-8" standalone="no"?>
<!-- Created with Inkscape (http://www.inkscape.org/) -->

<svg
   width="49.109615"
   height="49.109619"
   viewBox="0 0 49.109615 49.109619"
   version="1.1"
   id="SVGRoot"
   inkscape:export-filename="btnSubmit.svg"
   inkscape:export-xdpi="96"
   inkscape:export-ydpi="96"
   inkscape:version="1.2.2 (732a01da63, 2022-12-09, custom)"
   sodipodi:docname="/tmp/ink_ext_XXXXXX.svgMGK861"
   xmlns:inkscape="http://www.inkscape.org/namespaces/inkscape"
   xmlns:sodipodi="http://sodipodi.sourceforge.net/DTD/sodipodi-0.dtd"
   xmlns:xlink="http://www.w3.org/1999/xlink"
   xmlns="http://www.w3.org/2000/svg"
   xmlns:svg="http://www.w3.org/2000/svg">
  <sodipodi:namedview
     id="namedview7"
     pagecolor="#ffffff"
     bordercolor="#000000"
     borderopacity="0.25"
     inkscape:showpageshadow="2"
     inkscape:pageopacity="0.0"
     inkscape:pagecheckerboard="0"
     inkscape:deskcolor="#d1d1d1"
     inkscape:document-units="px"
     showgrid="true"
     inkscape:zoom="0.25"
     inkscape:cx="94.0"
     inkscape:cy="94.0"
     inkscape:window-width="1314"
     inkscape:window-height="679"
     inkscape:window-x="26"
     inkscape:window-y="23"
     inkscape:window-maximized="0"
     inkscape:current-layer="layer1"
     showguides="false">
    <inkscape:grid
       type="xygrid"
       id="grid305" />
  </sodipodi:namedview>
  <defs
     id="defs2">
    <linearGradient
       inkscape:collect="always"
       id="linearGradient20153">
      <stop
         style="stop-color:#ff43fe;stop-opacity:1;"
         offset="0"
         id="stop20149" />
      <stop
         style="stop-color:#ff43fe;stop-opacity:0;"
         offset="1"
         id="stop20151" />
    </linearGradient>
    <linearGradient
       inkscape:collect="always"
       id="linearGradient20131">
      <stop
         style="stop-color:#8d0b7d;stop-opacity:1;"
         offset="0"
         id="stop20127" />
      <stop
         style="stop-color:#8d0b7d;stop-opacity:0.97201347;"
         offset="1"
         id="stop20129" />
    </linearGradient>
    <linearGradient
       inkscape:collect="always"
       id="linearGradient20123">
      <stop
         style="stop-color:#fffff4;stop-opacity:1;"
         offset="0"
         id="stop20119" />
      <stop
         style="stop-color:#fffff4;stop-opacity:0;"
         offset="1"
         id="stop20121" />
    </linearGradient>
    <linearGradient
       inkscape:collect="always"
       id="linearGradient16387">
      <stop
         style="stop-color:#733c97;stop-opacity:1;"
         offset="0.64182395"
         id="stop16383" />
      <stop
         style="stop-color:#9a1db5;stop-opacity:0.32117784;"
         offset="1"
         id="stop16385" />
    </linearGradient>
    <linearGradient
       inkscape:collect="always"
       id="linearGradient16369">
      <stop
         style="stop-color:#9253b2;stop-opacity:1;"
         offset="0.0001"
         id="stop16365" />
      <stop
         style="stop-color:#000000;stop-opacity:0.98163068;"
         offset="0.73787153"
         id="stop16367" />
    </linearGradient>
    <linearGradient
       inkscape:collect="always"
       id="linearGradient12669">
      <stop
         style="stop-color:#ffffff;stop-opacity:1;"
         offset="0"
         id="stop12665" />
      <stop
         style="stop-color:#ffffff;stop-opacity:0;"
         offset="1"
         id="stop12667" />
    </linearGradient>
    <filter
       inkscape:collect="always"
       style="color-interpolation-filters:sRGB"
       id="filter11551"
       x="-0.19273324"
       y="-0.32538739"
       width="1.3854665"
       height="1.6507748">
      <feGaussianBlur
         inkscape:collect="always"
         stdDeviation="0.068874453"
         id="feGaussianBlur11553" />
    </filter>
    <linearGradient
       inkscape:collect="always"
       xlink:href="#linearGradient12669"
       id="linearGradient12671"
       x1="23.785208"
       y1="10.137655"
       x2="27.763165"
       y2="5.7161369"
       gradientUnits="userSpaceOnUse"
       gradientTransform="matrix(1.6288082,0,0,1,-18.451693,0.30410676)" />
    <linearGradient
       inkscape:collect="always"
       xlink:href="#linearGradient16369"
       id="linearGradient16371"
       x1="-9.1313868"
       y1="6.9270635"
       x2="33.633827"
       y2="32.185749"
       gradientUnits="userSpaceOnUse" />
    <linearGradient
       inkscape:collect="always"
       xlink:href="#linearGradient16387"
       id="linearGradient16391"
       x1="33.633827"
       y1="32.185749"
       x2="-9.1313868"
       y2="6.9270635"
       gradientUnits="userSpaceOnUse" />
    <filter
       inkscape:collect="always"
       style="color-interpolation-filters:sRGB"
       id="filter16401"
       x="-0.033161558"
       y="-0.033161558"
       width="1.066323"
       height="1.066323">
      <feGaussianBlur
         inkscape:collect="always"
         stdDeviation="0.24052456"
         id="feGaussianBlur16403" />
    </filter>
    <linearGradient
       inkscape:collect="always"
       xlink:href="#linearGradient20123"
       id="linearGradient20125"
       x1="-41.37429"
       y1="-12.332984"
       x2="-34.166203"
       y2="-12.244636"
       gradientUnits="userSpaceOnUse"
       gradientTransform="matrix(0.46712465,0,0,0.29714708,-40.954441,6.5047796)" />
    <radialGradient
       inkscape:collect="always"
       xlink:href="#linearGradient20131"
       id="radialGradient20133"
       cx="-66.568176"
       cy="-1.0606577"
       fx="-66.568176"
       fy="-1.0606577"
       r="16.150391"
       gradientTransform="matrix(2.6615838,0.13458313,-0.04321675,0.85467611,110.56276,8.804815)"
       gradientUnits="userSpaceOnUse" />
    <linearGradient
       inkscape:collect="always"
       xlink:href="#linearGradient20153"
       id="linearGradient20155"
       x1="-82.741005"
       y1="-0.63562417"
       x2="-50.440224"
       y2="-0.63562417"
       gradientUnits="userSpaceOnUse" />
    <filter
       inkscape:collect="always"
       style="color-interpolation-filters:sRGB"
       id="filter20157"
       x="-0.10558718"
       y="-0.17144822"
       width="1.2111744"
       height="1.3428963">
      <feGaussianBlur
         inkscape:collect="always"
         stdDeviation="1.4210616"
         id="feGaussianBlur20159" />
    </filter>
    <filter
       inkscape:collect="always"
       style="color-interpolation-filters:sRGB"
       id="filter20167"
       x="-0.29131678"
       y="-0.49182382"
       width="1.5826335"
       height="1.9836476">
      <feGaussianBlur
         inkscape:collect="always"
         stdDeviation="1.0365301"
         id="feGaussianBlur20165" />
    </filter>
    <filter
       inkscape:collect="always"
       style="color-interpolation-filters:sRGB"
       id="filter20169"
       x="-0.040926833"
       y="-0.064139538"
       width="1.0818537"
       height="1.1282791">
      <feGaussianBlur
         inkscape:collect="always"
         stdDeviation="0.55082005"
         id="feGaussianBlur20171" />
    </filter>
    <filter
       inkscape:collect="always"
       style="color-interpolation-filters:sRGB"
       id="filter20173"
       x="-0.1290395"
       y="-0.31465569"
       width="1.2580791"
       height="1.6293114">
      <feGaussianBlur
         inkscape:collect="always"
         stdDeviation="0.2307411"
         id="feGaussianBlur20175" />
    </filter>
  </defs>
  <g
     inkscape:label="Layer 1"
     inkscape:groupmode="layer"
     id="layer1"
     transform="translate(-0.44519138,-0.44519126)">
    <ellipse
       style="opacity:0.983424;fill:url(#linearGradient16391);fill-opacity:1;stroke:url(#linearGradient16371);stroke-width:1.9;stroke-linejoin:round;stroke-miterlimit:1;stroke-dasharray:none;stroke-opacity:1;paint-order:markers stroke fill;filter:url(#filter16401)"
       id="path638"
       cy="25.000002"
       cx="25"
       rx="23.02755"
       ry="23.027552" />
    <ellipse
       style="fill:url(#linearGradient12671);fill-opacity:1;stroke:#fffbff;stroke-width:0;stroke-linejoin:round;stroke-miterlimit:1;stroke-dasharray:none;stroke-opacity:1;paint-order:markers stroke fill"
       id="path12655"
       cx="23.301344"
       cy="6.6641145"
       rx="7.4055924"
       ry="1.9209741" />
    <g
       id="g20182"
       transform="translate(91.296481,25.3307)">
      <ellipse
         style="mix-blend-mode:normal;fill:#c87137;fill-opacity:0;stroke:#c87137;stroke-width:8.75;stroke-linejoin:round;stroke-miterlimit:1;stroke-dasharray:none;stroke-opacity:1;paint-order:markers stroke fill;filter:url(#filter11551)"
         id="path5841"
         cx="-66.545235"
         cy="0.90064168"
         rx="11.778711"
         ry="6.976759" />
      <path
         id="path16520"
         style="opacity:0.983424;fill:url(#linearGradient20155);fill-opacity:1;stroke:#c87137;stroke-width:0;stroke-linejoin:round;stroke-miterlimit:1;stroke-dasharray:none;stroke-opacity:0.919638;paint-order:markers stroke fill;filter:url(#filter20157)"
         d="m -66.13358,-10.581917 -2.484375,0.08594 -1.783203,0.185547 -1.494141,0.287109 -2.443359,0.7480471 -2.460938,1.091797 -2.130859,1.505859 -1.466797,1.4375002 -1.023437,1.3964844 -0.570313,1.09375 -0.572266,1.6914063 -0.177734,1.71679695 0.130859,1.87109365 0.494141,1.447266 0.306641,0.607421 0.683593,0.578125 0.642579,0.347657 0.792968,0.263672 0.847656,0.183593 0.601563,0.179688 0.365234,0.332031 0.181641,0.207031 0.142578,0.658203 -0.01953,0.675782 0.06445,0.517578 0.492188,0.476562 0.316406,0.119141 0.5625,0.109375 0.671875,0.07813 0.828125,-0.01367 1.023437,-0.04492 0.970703,-0.371094 0.267578,-0.621093 -0.271484,-0.839844 -0.193359,-0.632813 0.162109,-0.638671 0.201172,-0.15625 1.052734,-0.359375 1.173828,-0.125 1.185547,0.439453 0.621094,1.21289 0.230469,0.917969 0.46875,0.714844 0.664062,0.25 0.871094,0.201172 0.580078,-0.164063 1.222656,-0.517578 0.367188,-0.587891 0.251953,-0.722656 0.1875,-0.667969 0.248047,-0.707031 0.476562,-0.480469 0.523438,-0.117187 0.535156,0.02734 0.486328,0.128906 0.855469,0.613281 0.90625,0.560547 0.246094,0.257813 1.013672,0.166015 1,-0.04297 0.808593,-0.253906 c 0,0 0.677182,-0.230469 0.779297,-0.230469 0.102115,0 1.171875,-0.726562 1.171875,-0.726562 l 0.744141,-0.621094 0.341797,-0.625 0.05078,-0.927734 -0.330078,-0.769531 -0.08984,-0.4921879 0.06445,-0.2519531 0.310547,-0.00781 0.177735,0.2792969 0.197265,0.4355466 0.642578,0.261719 0.689453,-0.08203 0.742188,-0.2167972 0.316406,-0.3281249 0.212891,-0.3378906 0.01953,-0.6484376 0.01758,-1.68359365 -0.267578,-1.41015635 -1.089844,-2.3242187 -0.90039,-1.2402344 -1.339844,-1.3437501 -2.216797,-1.505859 -2.023437,-0.941407 -2.992188,-1.0273426 z m -0.537109,3.7460941 a 10.476147,4.624002 0 0 1 10.476562,4.623047 10.476147,4.624002 0 0 1 -10.476562,4.625 10.476147,4.624002 0 0 1 -10.476563,-4.625 10.476147,4.624002 0 0 1 10.476563,-4.623047 z" />
      <ellipse
         style="mix-blend-mode:normal;fill:#c8b437;fill-opacity:0.00514155;stroke:#c87137;stroke-width:8.75;stroke-linejoin:round;stroke-miterlimit:1;stroke-dasharray:none;stroke-opacity:1;paint-order:markers stroke fill;filter:url(#filter20167)"
         id="ellipse20161"
         cx="-66.545235"
         cy="0.90064168"
         rx="11.778711"
         ry="6.976759" />
      <path
         id="path16631"
         style="opacity:0.983424;fill:url(#radialGradient20133);fill-opacity:1;stroke:#c8719a;stroke-width:0;stroke-linejoin:round;stroke-miterlimit:1;stroke-dasharray:none;stroke-opacity:0.919638;paint-order:markers stroke fill;filter:url(#filter20169)"
         d="m -66.111142,-11.366069 -2.484375,0.08904 -1.783203,0.192246 -1.494141,0.297476 -2.443359,0.775056 -2.460938,1.1312166 -2.130859,1.56023 -1.466797,1.4894022 -1.023437,1.4469059 -0.570313,1.133241 -0.572266,1.7524763 -0.177734,1.77878365 0.130859,1.93865145 0.494141,1.4995205 0.306641,0.629353 0.683593,0.598999 0.642579,0.360209 0.792968,0.273192 0.847656,0.190222 0.601563,0.186175 0.365234,0.34402 0.181641,0.214506 0.142578,0.681969 -0.01953,0.700181 0.06445,0.536265 0.492188,0.49377 0.316406,0.123442 0.5625,0.113324 0.671875,0.08095 0.828125,-0.01417 1.023437,-0.04654 0.970703,-0.384492 0.267578,-0.643519 -0.271484,-0.870168 -0.193359,-0.65566 0.162109,-0.661732 0.201172,-0.161892 1.052734,-0.37235 1.173828,-0.129514 1.185547,0.45532 0.621094,1.256684 0.230469,0.951113 0.46875,0.740654 0.664062,0.259026 0.871094,0.208435 0.580078,-0.169986 1.222656,-0.536265 0.367188,-0.609117 0.251953,-0.748749 0.1875,-0.692086 0.248047,-0.73256 0.476562,-0.497816 0.523438,-0.121419 0.535156,0.02833 0.486328,0.133561 0.855469,0.635424 0.90625,0.580786 0.246094,0.267121 1.013672,0.17201 1,-0.04452 0.808593,-0.263074 c 0,0 0.677182,-0.23879 0.779297,-0.23879 0.102115,0 1.171875,-0.752796 1.171875,-0.752796 l 0.744141,-0.643519 0.341797,-0.647566 0.05078,-0.961231 -0.330078,-0.7973157 -0.08984,-0.5099584 0.06445,-0.2610501 0.310547,-0.00809 0.177735,0.2893812 0.197265,0.4512727 0.642578,0.2711688 0.689453,-0.084994 0.742188,-0.2246245 0.316406,-0.3399722 0.212891,-0.3500905 0.01953,-0.6718501 0.01758,-1.74438155 -0.267578,-1.46107145 -1.089844,-2.408137 -0.90039,-1.2850144 -1.339844,-1.3922682 -2.216797,-1.560229 -2.023437,-0.975398 -2.992188,-1.0644362 z m -0.537109,3.8813506 a 10.476147,4.7909564 0 0 1 10.476562,4.7899664 10.476147,4.7909564 0 0 1 -10.476562,4.7919904 10.476147,4.7909564 0 0 1 -10.476563,-4.7919904 10.476147,4.7909564 0 0 1 10.476563,-4.7899664 z" />
      <ellipse
         style="opacity:0.983424;fill:url(#linearGradient20125);fill-opacity:1;stroke:#fffdff;stroke-width:0;stroke-linejoin:round;stroke-miterlimit:1;stroke-dasharray:none;stroke-opacity:1;paint-order:markers stroke fill;filter:url(#filter20173)"
         id="path16685"
         cx="-58.13562"
         cy="2.840071"
         rx="2.1457739"
         ry="0.87997633" />
    </g>
  </g>
</svg>
